<svg viewBox="0 0 1000 310" xmlns="http://www.w3.org/2000/svg">
  <path d="M666.87, 177.03C664.42, 183.58 661.98, 190.12 659.53, 196.64L657.63, 201.71C655.95, 206.56 654.47, 211.41 653.2, 216.26L651.31, 222.59C650.67, 225.33 651.31, 227.86 653.2, 230.18L677.57, 256.76C678.62, 257.81 679.99, 258.34 681.68, 258.34C682.52, 258.34 683.58, 258.13 684.84, 257.71L690.22, 254.54L698.13, 249.48C702.35, 246.74 706.52, 244.05 710.63, 241.41C714.74, 238.78 718.91, 235.98 723.13, 233.03C726.92, 230.5 730.61, 227.81 734.2, 224.96C737.79, 222.11 741.58, 219.21 745.59, 216.26C749.81, 212.67 753.08, 208.88 755.4, 204.87C756.45, 202.76 756.87, 200.65 756.66, 198.54C756.45, 196.43 755.5, 194.74 753.82, 193.48C752.97, 192.85 751.81, 191.84 750.34, 190.47L745.91, 186.36C744.43, 184.99 743.01, 183.67 741.64, 182.41C740.26, 181.14 739.26, 180.19 738.63, 179.56C738.21, 179.14 738.42, 178.77 739.26, 178.45C740.11, 178.13 741.21, 177.82 742.58, 177.5C743.96, 177.19 745.33, 176.97 746.7, 176.87C748.07, 176.76 749.07, 176.71 749.7, 176.71L761.73, 176.71C765.73, 176.71 769.74, 176.82 773.75, 177.03L800.01, 177.03C802.54, 177.03 805.6, 176.71 809.18, 176.08C809.82, 176.08 810.13, 175.66 810.13, 174.81C810.98, 171.65 810.77, 168.38 809.5, 165C809.29, 164.37 808.97, 163.84 808.55, 163.42C808.13, 163 807.71, 162.68 807.29, 162.47C804.97, 161.84 802.54, 161.52 800.01, 161.52L768.37, 162.47C766.47, 162.68 764.63, 162.79 762.83, 162.79L757.61, 162.79L746.86, 162.79C742, 163 737.21, 163.11 732.46, 163.11L718.06, 163.11L708.89, 163.74C705.51, 163.74 702.67, 165.85 700.35, 170.07C699.71, 171.12 699.92, 172.18 700.98, 173.23C701.82, 174.71 703.19, 175.97 705.09, 177.03C706.15, 177.87 707.25, 178.66 708.41, 179.4C709.57, 180.14 710.68, 180.82 711.74, 181.46L720.91, 187.47C721.97, 188.31 722.97, 189.21 723.92, 190.16L727.87, 194.11C728.72, 194.96 729.14, 196.22 729.14, 197.91C729.14, 199.6 728.72, 200.86 727.87, 201.71L726.92, 202.97C726.08, 203.81 725.34, 204.61 724.71, 205.34C724.08, 206.08 723.23, 206.77 722.18, 207.4C715.43, 211.83 708.89, 215.73 702.56, 219.11C696.23, 222.48 689.69, 225.33 682.95, 227.65C679.78, 228.7 677.46, 228.28 675.98, 226.38C674.93, 224.91 674.51, 223.11 674.72, 221C675.14, 218.9 675.51, 217 675.83, 215.31C676.14, 213.62 676.62, 211.94 677.25, 210.25C678.94, 204.55 680.78, 198.96 682.79, 193.48C684.79, 188 686.64, 182.51 688.32, 177.03L688.77, 175.68C688.85, 175.56 688.9, 175.4 688.93, 175.21L691.17, 168.48L693.07, 164.06C694.34, 161.1 696.13, 158.89 698.45, 157.41L704.46, 153.93L709.21, 151.08C713.42, 148.34 717.7, 145.7 722.02, 143.17C726.34, 140.64 730.61, 138.11 734.83, 135.58L760.46, 120.39L762.04, 119.44C763.31, 118.81 764.57, 118.13 765.84, 117.39C767.1, 116.65 768.37, 115.86 769.64, 115.01C773.85, 112.06 775.86, 108.37 775.65, 103.94C775.65, 100.99 775.54, 98.04 775.33, 95.08C775.12, 92.13 774.8, 88.86 774.38, 85.27C773.96, 81.69 773.48, 77.94 772.96, 74.04C772.43, 70.14 771.85, 66.4 771.22, 62.81L769.32, 48.26L767.61, 33.33L1000, 33.33L1000, 310L0, 310L0, 33.33L278.16, 33.33C276.17, 38.29 274.05, 43.52 271.8, 49.05C268.32, 57.59 265, 65.87 261.83, 73.88C258.67, 81.9 255.77, 89.12 253.13, 95.56C250.5, 101.99 248.54, 106.68 247.28, 109.64C245.38, 114.28 243.43, 118.86 241.43, 123.4C239.42, 127.93 237.58, 132.42 235.89, 136.85C231.67, 147.18 227.29, 157.57 222.76, 168.01C218.22, 178.45 213.43, 188.84 208.36, 199.17C206.04, 204.03 203.88, 209.03 201.88, 214.2C199.87, 219.37 198.03, 224.38 196.34, 229.23C195.5, 231.55 194.65, 233.77 193.81, 235.88C192.97, 237.98 192.12, 240.2 191.28, 242.52C187.06, 253.7 189.8, 263.4 199.5, 271.63C200.14, 272.05 200.82, 272.58 201.56, 273.21C202.3, 273.84 202.98, 274.37 203.62, 274.79C215.01, 280.49 225.55, 283.33 235.26, 283.33C245.38, 283.33 254.87, 280.49 263.73, 274.79L269.43, 270.99C270.27, 270.36 271.06, 269.73 271.8, 269.1C272.54, 268.46 273.33, 267.94 274.17, 267.51C274.8, 267.09 275.38, 266.78 275.91, 266.56C276.44, 266.35 277.02, 266.14 277.65, 265.93L279.55, 264.98L280.18, 264.67L280.82, 265.3C281.24, 265.72 281.55, 265.98 281.77, 266.09C281.98, 266.2 282.29, 266.46 282.71, 266.88C283.35, 267.3 283.98, 267.83 284.61, 268.46L286.19, 270.05C296.95, 278.9 308.97, 283.33 322.26, 283.33C333.02, 283.33 342.72, 280.17 351.37, 273.84C356.43, 270.26 360.91, 266.78 364.82, 263.4C368.72, 260.03 372.36, 256.55 375.73, 252.96C383.33, 243.89 390.34, 234.29 396.77, 224.17C403.21, 214.04 409.16, 202.97 414.65, 190.95C425.41, 167.75 434.84, 146.13 442.96, 126.09C451.09, 106.05 458.42, 86.43 464.95, 67.24C466.01, 63.65 467.17, 60.02 468.43, 56.32C469.7, 52.63 470.86, 49 471.91, 45.41C473.22, 41.41 474.54, 37.38 475.89, 33.33L602.97, 33.33C597.25, 47.3 591.53, 61.35 585.81, 75.47L565.57, 125.46C560.71, 137.27 556.07, 149.13 551.64, 161.05C551.54, 161.32 551.44, 161.59 551.34, 161.86C551.11, 161.94 550.89, 162.04 550.66, 162.16C549.82, 162.58 548.66, 163.42 547.18, 164.69L542.43, 169.12L537.37, 173.86L527.88, 182.41C523.45, 186.2 519.02, 190.05 514.59, 193.95C510.16, 197.86 505.63, 201.71 500.99, 205.5C497.19, 208.67 493.29, 211.62 489.28, 214.36C485.27, 217.1 481.48, 219.63 477.89, 221.95C475.57, 223.64 473.14, 225.01 470.61, 226.07L463.02, 229.23L462.7, 229.23C458.49, 230.92 453.85, 231.13 448.78, 229.86C447.73, 229.44 446.73, 228.91 445.78, 228.28C444.83, 227.65 443.93, 227.02 443.09, 226.38C441.61, 225.33 441.08, 223.64 441.51, 221.32C441.93, 219 442.98, 217.52 444.67, 216.89L444.99, 216.89L445.94, 216.26C453.95, 214.15 461.49, 211.3 468.56, 207.72C475.62, 204.13 482.64, 200.44 489.6, 196.64L491.81, 195.06C497.3, 192.32 502.25, 188.42 506.68, 183.35C508.16, 181.46 509.42, 179.61 510.48, 177.82C511.53, 176.03 512.27, 174.07 512.69, 171.96C513.54, 168.8 513.54, 165.53 512.69, 162.16C511.64, 158.36 509.85, 155.09 507.31, 152.35C505.63, 150.66 503.94, 149.13 502.25, 147.76C500.57, 146.39 498.88, 144.86 497.19, 143.17C493.82, 140.22 490.34, 138.74 486.75, 138.74C483.59, 138.74 480.32, 139.9 476.94, 142.22L475.99, 142.86C475.78, 142.86 475.57, 142.96 475.36, 143.17C451.95, 157.73 434.33, 179.14 422.52, 207.4C421.47, 209.72 420.78, 212.09 420.47, 214.52C420.15, 216.94 419.78, 219.32 419.36, 221.64C419.15, 223.33 419.25, 225.22 419.68, 227.33C420.1, 229.44 421.26, 231.45 423.16, 233.34C430.75, 241.57 441.51, 246.42 455.43, 247.9C455.85, 247.9 456.32, 247.85 456.85, 247.74C457.38, 247.63 457.85, 247.58 458.27, 247.58C459.33, 247.37 460.38, 247.21 461.44, 247.11C462.49, 247 463.55, 246.95 464.6, 246.95C475.15, 246.32 484.96, 242.31 494.03, 234.93L503.2, 227.02C506.15, 224.7 509.16, 222.22 512.22, 219.58C515.28, 216.94 518.28, 214.36 521.24, 211.83L538.66, 195.85C538.56, 196.11 538.46, 196.38 538.36, 196.64L536.46, 201.71C534.77, 206.56 533.29, 211.41 532.03, 216.26L530.13, 222.59C529.5, 225.33 530.13, 227.86 532.03, 230.18L556.39, 256.76C557.44, 257.81 558.82, 258.34 560.5, 258.34C561.35, 258.34 562.4, 258.13 563.67, 257.71L569.05, 254.54L576.96, 249.48C581.17, 246.74 585.34, 244.05 589.45, 241.41C593.57, 238.78 597.73, 235.98 601.95, 233.03C605.75, 230.5 609.44, 227.81 613.02, 224.96C616.61, 222.11 620.41, 219.21 624.41, 216.26C628.63, 212.67 631.9, 208.88 634.22, 204.87C635.28, 202.76 635.7, 200.65 635.49, 198.54C635.28, 196.43 634.33, 194.74 632.64, 193.48C631.8, 192.85 630.64, 191.84 629.16, 190.47L624.73, 186.36C623.25, 184.99 621.83, 183.67 620.46, 182.41C619.09, 181.14 618.09, 180.19 617.45, 179.56C617.03, 179.14 617.24, 178.77 618.09, 178.45C618.93, 178.13 620.04, 177.82 621.41, 177.5C622.78, 177.19 624.15, 176.97 625.52, 176.87C626.89, 176.76 627.89, 176.71 628.53, 176.71L640.55, 176.71C644.56, 176.71 648.56, 176.82 652.57, 177.03L666.87, 177.03ZM672.57, 161.71L647.19, 162.47C645.29, 162.68 643.45, 162.79 641.66, 162.79L636.44, 162.79L625.68, 162.79C620.83, 163 616.03, 163.11 611.28, 163.11L596.89, 163.11L587.71, 163.74C584.34, 163.74 581.49, 165.85 579.17, 170.07C578.54, 171.12 578.75, 172.18 579.8, 173.23C580.65, 174.71 582.02, 175.97 583.92, 177.03C584.97, 177.87 586.08, 178.66 587.24, 179.4C588.4, 180.14 589.51, 180.82 590.56, 181.46L599.74, 187.47C600.79, 188.31 601.79, 189.21 602.74, 190.16L606.7, 194.11C607.54, 194.96 607.96, 196.22 607.96, 197.91C607.96, 199.6 607.54, 200.86 606.7, 201.71L605.75, 202.97C604.9, 203.81 604.16, 204.61 603.53, 205.34C602.9, 206.08 602.06, 206.77 601, 207.4C594.25, 211.83 587.71, 215.73 581.38, 219.11C575.06, 222.48 568.52, 225.33 561.77, 227.65C558.6, 228.7 556.28, 228.28 554.81, 226.38C553.75, 224.91 553.33, 223.11 553.54, 221C553.96, 218.9 554.33, 217 554.65, 215.31C554.97, 213.62 555.44, 211.94 556.07, 210.25C557.76, 204.55 559.61, 198.96 561.61, 193.48C563.61, 188 565.46, 182.51 567.15, 177.03L569.99, 168.48L571.89, 164.06C573.16, 161.1 574.95, 158.89 577.27, 157.41L583.28, 153.93L588.03, 151.08C592.25, 148.34 596.52, 145.7 600.84, 143.17C605.17, 140.64 609.44, 138.11 613.66, 135.58L639.28, 120.39L640.87, 119.44C642.13, 118.81 643.4, 118.13 644.66, 117.39C645.93, 116.65 647.19, 115.86 648.46, 115.01C652.68, 112.06 654.68, 108.37 654.47, 103.94C654.47, 100.99 654.36, 98.04 654.15, 95.08C653.94, 92.13 653.63, 88.86 653.2, 85.27C652.78, 81.69 652.31, 77.94 651.78, 74.04C651.25, 70.14 650.67, 66.4 650.04, 62.81L648.14, 48.26L646.43, 33.33L724.15, 33.33C718.43, 47.3 712.71, 61.35 706.99, 75.47L686.74, 125.46C681.89, 137.27 677.25, 149.13 672.82, 161.05C672.74, 161.27 672.66, 161.49 672.57, 161.71ZM304.17, 33.33L363.98, 33.33C363.22, 35.47 362.5, 37.54 361.81, 39.56C360.33, 43.88 359.28, 46.89 358.65, 48.57C352.53, 66.08 346.04, 83.27 339.19, 100.14C332.33, 117.02 325.53, 133.37 318.78, 149.18C313.93, 160.57 308.61, 172.18 302.8, 183.99C297, 195.8 290.2, 208.45 282.4, 221.95C276.91, 231.66 270.27, 240.41 262.47, 248.21C260.78, 249.9 258.83, 251.54 256.61, 253.12C254.4, 254.7 252.02, 256.33 249.49, 258.02C248.02, 258.87 246.49, 259.45 244.91, 259.76C243.32, 260.08 241.79, 260.34 240.32, 260.55C236.52, 260.98 233.31, 260.03 230.67, 257.71C228.03, 255.39 226.61, 252.43 226.4, 248.85C226.19, 245.47 226.19, 242.15 226.4, 238.88C226.61, 235.61 227.14, 232.29 227.98, 228.91C229.46, 223.01 231.2, 217.05 233.2, 211.04C235.2, 205.03 237.47, 198.86 240, 192.53C244.01, 182.83 247.96, 173.12 251.87, 163.42C255.77, 153.72 259.62, 144.12 263.41, 134.63L269.11, 120.08L274.8, 105.52L282.4, 86.86C286.62, 76.31 290.89, 65.82 295.21, 55.38C298.22, 48.11 301.21, 40.76 304.17, 33.33ZM387.1, 33.33L453.96, 33.33C453.62, 34.35 453.28, 35.37 452.93, 36.39C451.24, 41.35 449.24, 46.68 446.92, 52.37C444.6, 58.28 442.28, 63.87 439.96, 69.14C437.01, 76.31 434.11, 83.53 431.26, 90.81C428.41, 98.09 425.62, 105.42 422.87, 112.8C418.02, 125.46 412.43, 138.59 406.11, 152.19C399.78, 165.8 392.18, 181.03 383.33, 197.91C380.37, 203.39 377.26, 208.82 373.99, 214.2C370.72, 219.58 367.4, 224.8 364.03, 229.86C363.18, 230.92 362.44, 232.03 361.81, 233.19C361.18, 234.35 360.44, 235.45 359.6, 236.51C353.48, 245.79 345.89, 252.85 336.82, 257.71C334.07, 259.18 331.12, 260.03 327.96, 260.24C327.54, 260.24 327.27, 260.29 327.17, 260.4C327.06, 260.5 326.8, 260.55 326.38, 260.55C323.63, 260.55 321.31, 259.66 319.42, 257.86C317.52, 256.07 316.36, 253.8 315.94, 251.06C315.51, 247.48 315.46, 243.68 315.78, 239.67C316.09, 235.66 316.78, 231.55 317.83, 227.33C321.84, 210.04 326.59, 194.53 332.07, 180.82C336.29, 170.7 340.4, 160.68 344.41, 150.77C348.42, 140.85 352.32, 131.36 356.12, 122.29C359.91, 112.59 363.55, 102.78 367.03, 92.87C370.51, 82.95 373.83, 73.04 377, 63.13C378.47, 59.12 379.85, 55.11 381.11, 51.1C382.38, 47.1 383.75, 43.09 385.22, 39.08C385.65, 38.03 386.02, 36.92 386.33, 35.76C386.56, 34.92 386.81, 34.12 387.1, 33.33ZM456.06, 190C461.54, 179.45 468.08, 171.12 475.68, 165C478.42, 162.47 481.37, 161.21 484.53, 161.21C485.8, 161.21 486.96, 161.73 488.01, 162.79C489.07, 164.69 489.49, 166.38 489.28, 167.85C489.28, 169.12 488.96, 170.17 488.33, 171.02C487.49, 172.28 486.64, 173.6 485.8, 174.97C484.96, 176.34 484.01, 177.55 482.95, 178.61C476.2, 185.15 468.61, 190.1 460.17, 193.48C459.96, 193.69 459.75, 193.8 459.54, 193.8C459.12, 193.8 458.7, 193.69 458.27, 193.48L457.01, 192.85C456.8, 192.85 456.69, 192.74 456.69, 192.53C456.27, 192.53 456.06, 192.32 456.06, 191.9C455.85, 191.48 455.8, 191.11 455.9, 190.79C456.01, 190.47 456.06, 190.21 456.06, 190ZM587.71, 121.66C588.13, 119.34 588.77, 117.23 589.61, 115.33L620.3, 41.3L622.51, 38.77C622.94, 38.55 623.46, 38.45 624.1, 38.45L625.05, 38.45C626.1, 38.87 626.73, 39.29 626.94, 39.71C627.58, 40.14 627.89, 40.77 627.89, 41.61C628.95, 49.42 629.95, 57.17 630.9, 64.87C631.85, 72.57 632.85, 80.32 633.9, 88.12L634.85, 94.77C634.85, 96.24 634.7, 97.67 634.38, 99.04C634.06, 100.41 633.06, 101.62 631.37, 102.68C625.26, 106.26 619.03, 109.9 612.71, 113.59C606.38, 117.28 599.52, 121.24 592.14, 125.46C591.72, 125.67 591.19, 125.77 590.56, 125.77C589.72, 125.77 589.19, 125.56 588.98, 125.14C588.56, 124.72 588.19, 124.19 587.87, 123.56C587.55, 122.92 587.5, 122.29 587.71, 121.66ZM708.89, 121.66C709.31, 119.34 709.94, 117.23 710.79, 115.33L741.48, 41.3L743.69, 38.77C744.11, 38.55 744.64, 38.45 745.27, 38.45L746.22, 38.45C747.28, 38.87 747.91, 39.29 748.12, 39.71C748.75, 40.14 749.07, 40.77 749.07, 41.61C750.12, 49.42 751.13, 57.17 752.08, 64.87C753.03, 72.57 754.03, 80.32 755.08, 88.12L756.03, 94.77C756.03, 96.24 755.87, 97.67 755.56, 99.04C755.24, 100.41 754.24, 101.62 752.55, 102.68C746.43, 106.26 740.21, 109.9 733.88, 113.59C727.56, 117.28 720.7, 121.24 713.32, 125.46C712.9, 125.67 712.37, 125.77 711.74, 125.77C710.89, 125.77 710.37, 125.56 710.15, 125.14C709.73, 124.72 709.36, 124.19 709.05, 123.56C708.73, 122.92 708.68, 122.29 708.89, 121.66Z"/>
</svg>
