<svg viewBox="0 0 600 300" xmlns="http://www.w3.org/2000/svg">
  <style>
    path {
      fill: #010000;
      fill-rule: evenodd;
    }
  </style>

  <path d="M296.832, 210.336c-6.048, 8.928 -12.096, 12.096 -19.584, 12.096c-8.64, 0 -11.808, -5.76 -11.808, -14.688l0, -6.336l57.024, 0l0, -32.832c0, -39.456 -19.584, -53.856 -51.552, -53.856c-27.648, 0 -50.4, 14.688 -50.4, 53.856l0, 37.44c0, 35.424 21.024, 52.704 52.704, 52.704c24.768, 0 40.32, -7.2 51.84, -25.344l-28.224, -23.04Zm76.896, 44.064l-38.88, 0l0, -213.12l46.368, 0l0, 87.264c6.048, -8.064 14.688, -13.824 27.36, -13.824c24.192, 0 36, 13.824 36, 50.976l0, 42.048c0, 32.832 -14.112, 50.976 -43.776, 50.976c-14.112, 0 -22.176, -5.76 -27.072, -13.536l0, 9.216Zm122.976, 0l-38.88, 0l0, -213.12l46.368, 0l0, 87.264c6.048, -8.064 14.688, -13.824 27.36, -13.824c24.192, 0 36, 13.824 36, 50.976l0, 42.048c0, 32.832 -14.112, 50.976 -43.776, 50.976c-14.112, 0 -22.176, -5.76 -27.072, -13.536l0, 9.216Zm-388.224, 0l-51.84, 0l-24.192, -135.36l52.128, 0l1.44, 80.352l13.248, -80.352l48.672, 0l12.672, 83.52l4.608, -83.52l52.128, 0l-31.104, 135.36l-57.6, 0l-8.064, -62.784l-12.096, 62.784Zm289.44, -46.656c0, 10.368 -2.88, 14.688 -10.08, 14.688c-2.592, 0 -4.896, -1.44 -6.624, -4.032l0, -53.856c0.864, -10.08 4.032, -13.536 8.64, -13.536c6.336, 0 8.064, 4.32 8.064, 13.248l0, 43.488Zm122.976, 0c0, 10.368 -2.88, 14.688 -10.08, 14.688c-2.592, 0 -4.896, -1.44 -6.624, -4.032l0, -53.856c0.864, -10.08 4.032, -13.536 8.64, -13.536c6.336, 0 8.064, 4.32 8.064, 13.248l0, 43.488Zm-243.36, -35.136l0, -11.808c0, -6.336 -2.016, -9.792 -6.048, -9.792c-4.032, 0 -6.048, 3.456 -6.048, 9.792l0, 11.808l12.096, 0Zm-230.016, -108.656l0, 4.032l-5.424, 0l0, 27.792l-4.272, 0l0, -27.792l-5.376, 0l0, -4.032l15.072, 0Zm7.488, 13.92l7.872, 0l0, -13.92l4.272, 0l0, 31.824l-4.272, 0l0, -13.824l-7.872, 0l0, 13.824l-4.272, 0l0, -31.824l4.272, 0l0, 13.92Zm29.856, -13.92l0, 4.176l-8.736, 0l0, 9.984l7.296, 0l0, 3.504l-7.296, 0l0, 9.984l8.736, 0l0, 4.176l-13.008, 0l0, -31.824l13.008, 0Z"/>
</svg>
