<svg viewBox="0 0 16 16" xmlns="http://www.w3.org/2000/svg">
  <rect x="0" y="0" width="16" height="16" style="fill: white;"/>
  <path d="M14.898, 1.676L16, 1.676L16, 16L0, 16L0, 1.676L5.859, 1.676C5.768, 1.903 5.671, 2.142 5.568, 2.395C5.409, 2.785 5.257, 3.164 5.112, 3.53C4.968, 3.896 4.835, 4.227 4.715, 4.521C4.594, 4.815 4.505, 5.029 4.447, 5.165C4.36, 5.377 4.271, 5.586 4.18, 5.794C4.088, 6.001 4.004, 6.206 3.926, 6.408C3.733, 6.881 3.533, 7.356 3.326, 7.833C3.119, 8.31 2.9, 8.785 2.668, 9.257C2.562, 9.48 2.463, 9.708 2.372, 9.944C2.28, 10.181 2.196, 10.41 2.118, 10.632C2.08, 10.738 2.041, 10.839 2.003, 10.936C1.964, 11.032 1.925, 11.133 1.887, 11.239C1.694, 11.75 1.819, 12.194 2.263, 12.57C2.292, 12.589 2.323, 12.613 2.357, 12.642C2.391, 12.671 2.422, 12.695 2.451, 12.714C2.972, 12.975 3.454, 13.105 3.898, 13.105C4.36, 13.105 4.794, 12.975 5.199, 12.714L5.46, 12.541C5.498, 12.512 5.534, 12.483 5.568, 12.454C5.602, 12.425 5.638, 12.401 5.676, 12.381C5.705, 12.362 5.732, 12.348 5.756, 12.338C5.78, 12.328 5.807, 12.319 5.835, 12.309L5.922, 12.266L5.951, 12.252L5.98, 12.28C6, 12.3 6.014, 12.312 6.024, 12.317C6.033, 12.322 6.048, 12.333 6.067, 12.353C6.096, 12.372 6.125, 12.396 6.154, 12.425L6.226, 12.498C6.718, 12.902 7.267, 13.105 7.875, 13.105C8.367, 13.105 8.81, 12.96 9.205, 12.671C9.437, 12.507 9.642, 12.348 9.82, 12.194C9.999, 12.04 10.165, 11.88 10.319, 11.716C10.667, 11.302 10.987, 10.863 11.281, 10.4C11.575, 9.937 11.847, 9.431 12.098, 8.882C12.59, 7.821 13.021, 6.833 13.392, 5.917C13.764, 5 14.099, 4.104 14.398, 3.226C14.446, 3.062 14.499, 2.896 14.557, 2.727C14.615, 2.558 14.668, 2.392 14.716, 2.228C14.776, 2.045 14.836, 1.861 14.898, 1.676ZM7.048, 1.676L9.782, 1.676C9.747, 1.774 9.714, 1.869 9.683, 1.961C9.615, 2.158 9.567, 2.296 9.538, 2.373C9.259, 3.173 8.962, 3.959 8.649, 4.73C8.335, 5.502 8.024, 6.249 7.716, 6.972C7.494, 7.493 7.251, 8.024 6.985, 8.563C6.72, 9.103 6.409, 9.682 6.053, 10.299C5.802, 10.743 5.498, 11.143 5.141, 11.499C5.064, 11.576 4.975, 11.651 4.874, 11.724C4.773, 11.796 4.664, 11.87 4.548, 11.948C4.481, 11.987 4.411, 12.013 4.339, 12.027C4.266, 12.042 4.196, 12.054 4.129, 12.063C3.955, 12.083 3.808, 12.04 3.688, 11.933C3.567, 11.827 3.502, 11.692 3.493, 11.528C3.483, 11.374 3.483, 11.222 3.493, 11.073C3.502, 10.923 3.526, 10.771 3.565, 10.617C3.632, 10.347 3.712, 10.075 3.803, 9.8C3.895, 9.525 3.999, 9.243 4.114, 8.954C4.298, 8.51 4.478, 8.067 4.657, 7.623C4.835, 7.18 5.011, 6.741 5.184, 6.307L5.445, 5.642L5.705, 4.976L6.053, 4.123C6.245, 3.641 6.441, 3.161 6.638, 2.684C6.776, 2.352 6.912, 2.016 7.048, 1.676ZM10.839, 1.676L13.895, 1.676C13.88, 1.723 13.864, 1.769 13.848, 1.816C13.771, 2.043 13.68, 2.286 13.573, 2.547C13.467, 2.817 13.361, 3.072 13.255, 3.313C13.12, 3.641 12.988, 3.971 12.858, 4.304C12.727, 4.637 12.6, 4.972 12.474, 5.309C12.252, 5.888 11.997, 6.488 11.708, 7.11C11.419, 7.732 11.071, 8.428 10.667, 9.2C10.531, 9.45 10.389, 9.699 10.24, 9.944C10.09, 10.19 9.938, 10.429 9.784, 10.66C9.745, 10.709 9.712, 10.76 9.683, 10.813C9.654, 10.866 9.62, 10.916 9.582, 10.964C9.302, 11.389 8.955, 11.711 8.54, 11.933C8.415, 12.001 8.28, 12.04 8.135, 12.049C8.116, 12.049 8.104, 12.051 8.099, 12.056C8.094, 12.061 8.082, 12.063 8.063, 12.063C7.937, 12.063 7.831, 12.023 7.745, 11.94C7.658, 11.859 7.605, 11.755 7.586, 11.629C7.566, 11.466 7.564, 11.292 7.579, 11.109C7.593, 10.925 7.624, 10.738 7.672, 10.545C7.856, 9.754 8.073, 9.045 8.323, 8.419C8.516, 7.956 8.704, 7.498 8.887, 7.045C9.071, 6.591 9.249, 6.157 9.423, 5.743C9.596, 5.299 9.762, 4.851 9.921, 4.398C10.08, 3.944 10.232, 3.491 10.377, 3.038C10.444, 2.855 10.507, 2.672 10.565, 2.488C10.623, 2.306 10.686, 2.122 10.753, 1.939C10.773, 1.891 10.789, 1.84 10.804, 1.787C10.814, 1.749 10.826, 1.712 10.839, 1.676Z"/>
</svg>
