<svg viewBox="0 0 16 16" xmlns="http://www.w3.org/2000/svg">
  <path d="M10.461, 7.97L8.667, 8.553L8.667, 6.667C8.667, 6.299 8.369, 6 8, 6C7.631, 6 7.333, 6.299 7.333, 6.667L7.333, 8.553L5.539, 7.97C5.191, 7.856 4.813, 8.048 4.699, 8.398C4.585, 8.748 4.777, 9.124 5.128, 9.238L6.922, 9.821L5.813, 11.347C5.597, 11.645 5.663, 12.062 5.961, 12.279C6.079, 12.365 6.216, 12.406 6.352, 12.406C6.559, 12.406 6.761, 12.311 6.892, 12.131L8, 10.605L9.109, 12.131C9.239, 12.31 9.442, 12.405 9.649, 12.405C9.784, 12.405 9.921, 12.364 10.04, 12.278C10.337, 12.061 10.404, 11.645 10.187, 11.347L9.079, 9.821L10.873, 9.238C11.223, 9.124 11.415, 8.748 11.301, 8.398C11.186, 8.048 10.81, 7.856 10.461, 7.97ZM14, 1.333L12.667, 1.333L12.667, 0.667C12.667, 0.299 12.369, 0 12, 0C11.631, 0 11.333, 0.299 11.333, 0.667L11.333, 1.333L4.667, 1.333L4.667, 0.667C4.667, 0.299 4.369, 0 4, 0C3.631, 0 3.333, 0.299 3.333, 0.667L3.333, 1.333L2, 1.333C0.897, 1.333 0, 2.231 0, 3.333L0, 14C0, 15.103 0.897, 16 2, 16L14, 16C15.103, 16 16, 15.103 16, 14L16, 3.333C16, 2.231 15.103, 1.333 14, 1.333ZM14.667, 14C14.667, 14.368 14.368, 14.667 14, 14.667L2, 14.667C1.632, 14.667 1.333, 14.367 1.333, 14L1.333, 3.333C1.333, 2.965 1.632, 2.667 2, 2.667L3.333, 2.667L3.333, 4C3.333, 4.368 3.631, 4.667 4, 4.667C4.369, 4.667 4.667, 4.368 4.667, 4L4.667, 2.667L11.333, 2.667L11.333, 4C11.333, 4.368 11.631, 4.667 12, 4.667C12.369, 4.667 12.667, 4.368 12.667, 4L12.667, 2.667L14, 2.667C14.368, 2.667 14.667, 2.966 14.667, 3.333L14.667, 14Z"/>
</svg>
